<svg xmlns="http://www.w3.org/2000/svg" xmlns:xlink="http://www.w3.org/1999/xlink" viewBox="0 0 738 347" width="738" height="347"><path d="M 152.500,122.094 C 152.500,124.594 151.750,124.844 152.500,127.094" stroke-width="5.542" stroke="black" fill="none" stroke-linecap="round"></path><path d="M 152.500,127.094 C 153.250,129.344 154.598,128.838 155.500,131.094" stroke-width="4.598" stroke="black" fill="none" stroke-linecap="round"></path><path d="M 155.500,131.094 C 156.598,133.838 156.038,134.088 156.500,137.094" stroke-width="4.315" stroke="black" fill="none" stroke-linecap="round"></path><path d="M 156.500,137.094 C 157.038,140.588 156.886,140.613 157.500,144.094" stroke-width="4.017" stroke="black" fill="none" stroke-linecap="round"></path><path d="M 157.500,144.094 C 158.386,149.113 158.869,149.044 159.500,154.094" stroke-width="3.591" stroke="black" fill="none" stroke-linecap="round"></path><path d="M 159.500,154.094 C 160.369,161.044 159.665,161.136 160.500,168.094" stroke-width="3.218" stroke="black" fill="none" stroke-linecap="round"></path><path d="M 160.500,168.094 C 161.165,173.636 161.500,173.594 162.500,179.094" stroke-width="3.339" stroke="black" fill="none" stroke-linecap="round"></path><path d="M 162.500,179.094 C 163.500,184.594 163.288,184.639 164.500,190.094" stroke-width="3.377" stroke="black" fill="none" stroke-linecap="round"></path><path d="M 164.500,190.094 C 166.288,198.139 166.576,198.076 168.500,206.094" stroke-width="2.994" stroke="black" fill="none" stroke-linecap="round"></path><path d="M 168.500,206.094 C 169.576,210.576 169.818,210.544 170.500,215.094" stroke-width="3.321" stroke="black" fill="none" stroke-linecap="round"></path><path d="M 170.500,215.094 C 171.318,220.544 170.516,220.681 171.500,226.094" stroke-width="3.326" stroke="black" fill="none" stroke-linecap="round"></path><path d="M 171.500,226.094 C 172.516,231.681 173.484,231.506 174.500,237.094" stroke-width="3.297" stroke="black" fill="none" stroke-linecap="round"></path><path d="M 174.500,237.094 C 175.484,242.506 174.922,242.602 175.500,248.094" stroke-width="3.318" stroke="black" fill="none" stroke-linecap="round"></path><path d="M 175.500,248.094 C 175.922,252.102 175.712,252.153 176.500,256.094" stroke-width="3.603" stroke="black" fill="none" stroke-linecap="round"></path><path d="M 176.500,256.094 C 177.212,259.653 177.618,259.565 178.500,263.094" stroke-width="3.831" stroke="black" fill="none" stroke-linecap="round"></path><path d="M 178.500,263.094 C 179.118,265.565 178.830,265.639 179.500,268.094" stroke-width="4.125" stroke="black" fill="none" stroke-linecap="round"></path><path d="M 179.500,268.094 C 180.330,271.139 182.634,273.413 181.500,274.094" stroke-width="4.539" stroke="black" fill="none" stroke-linecap="round"></path><path d="M 181.500,274.094 C 180.134,274.913 177.820,272.905 174.500,271.094" stroke-width="5.056" stroke="black" fill="none" stroke-linecap="round"></path><path d="M 174.500,271.094 C 172.320,269.905 171.995,270.015 170.500,268.094" stroke-width="4.935" stroke="black" fill="none" stroke-linecap="round"></path><path d="M 170.500,268.094 C 168.495,265.515 168.474,265.258 167.500,262.094" stroke-width="5.198" stroke="black" fill="none" stroke-linecap="round"></path><path d="M 167.500,262.094 C 166.474,258.758 166.938,258.602 166.500,255.094" stroke-width="4.275" stroke="black" fill="none" stroke-linecap="round"></path><path d="M 166.500,255.094 C 165.938,250.602 166.140,250.574 165.500,246.094" stroke-width="3.833" stroke="black" fill="none" stroke-linecap="round"></path><path d="M 165.500,246.094 C 164.640,240.074 164.391,240.110 163.500,234.094" stroke-width="3.427" stroke="black" fill="none" stroke-linecap="round"></path><path d="M 163.500,234.094 C 162.391,226.610 163.029,226.484 161.500,219.094" stroke-width="3.033" stroke="black" fill="none" stroke-linecap="round"></path><path d="M 161.500,219.094 C 160.029,211.984 159.022,212.196 157.500,205.094" stroke-width="3.031" stroke="black" fill="none" stroke-linecap="round"></path><path d="M 157.500,205.094 C 156.022,198.196 157.251,197.921 155.500,191.094" stroke-width="3.059" stroke="black" fill="none" stroke-linecap="round"></path><path d="M 155.500,191.094 C 152.251,178.421 151.270,178.661 147.500,166.094" stroke-width="2.344" stroke="black" fill="none" stroke-linecap="round"></path><path d="M 147.500,166.094 C 145.270,158.661 145.328,158.636 143.500,151.094" stroke-width="2.732" stroke="black" fill="none" stroke-linecap="round"></path><path d="M 143.500,151.094 C 141.328,142.136 141.554,142.081 139.500,133.094" stroke-width="2.708" stroke="black" fill="none" stroke-linecap="round"></path><path d="M 139.500,133.094 C 137.554,124.581 138.171,124.373 135.500,116.094" stroke-width="2.754" stroke="black" fill="none" stroke-linecap="round"></path><path d="M 135.500,116.094 C 133.171,108.873 131.807,109.302 129.500,102.094" stroke-width="2.842" stroke="black" fill="none" stroke-linecap="round"></path><path d="M 129.500,102.094 C 127.807,96.802 128.419,96.607 127.500,91.094" stroke-width="3.207" stroke="black" fill="none" stroke-linecap="round"></path><path d="M 127.500,91.094 C 126.419,84.607 126.581,84.580 125.500,78.094" stroke-width="3.182" stroke="black" fill="none" stroke-linecap="round"></path><path d="M 125.500,78.094 C 124.581,72.580 123.927,72.645 123.500,67.094" stroke-width="3.327" stroke="black" fill="none" stroke-linecap="round"></path><path d="M 123.500,67.094 C 122.927,59.645 123.500,59.594 123.500,52.094" stroke-width="3.019" stroke="black" fill="none" stroke-linecap="round"></path><path d="M 123.500,52.094 C 123.500,46.594 122.695,46.463 123.500,41.094" stroke-width="3.286" stroke="black" fill="none" stroke-linecap="round"></path><path d="M 123.500,41.094 C 124.195,36.463 124.397,36.299 126.500,32.094" stroke-width="3.454" stroke="black" fill="none" stroke-linecap="round"></path><path d="M 126.500,32.094 C 128.897,27.299 128.776,26.818 132.500,23.094" stroke-width="3.443" stroke="black" fill="none" stroke-linecap="round"></path><path d="M 132.500,23.094 C 135.276,20.318 135.822,20.670 139.500,19.094" stroke-width="3.695" stroke="black" fill="none" stroke-linecap="round"></path><path d="M 139.500,19.094 C 142.822,17.670 143.117,18.395 146.500,17.094" stroke-width="3.862" stroke="black" fill="none" stroke-linecap="round"></path><path d="M 146.500,17.094 C 149.617,15.895 149.319,14.828 152.500,14.094" stroke-width="3.932" stroke="black" fill="none" stroke-linecap="round"></path><path d="M 152.500,14.094 C 155.819,13.328 156.000,14.094 159.500,14.094" stroke-width="3.969" stroke="black" fill="none" stroke-linecap="round"></path><path d="M 159.500,14.094 C 162.500,14.094 162.690,13.291 165.500,14.094" stroke-width="4.099" stroke="black" fill="none" stroke-linecap="round"></path><path d="M 165.500,14.094 C 169.690,15.291 170.142,15.239 173.500,18.094" stroke-width="3.801" stroke="black" fill="none" stroke-linecap="round"></path><path d="M 173.500,18.094 C 180.142,23.739 179.609,24.496 185.500,31.094" stroke-width="3.004" stroke="black" fill="none" stroke-linecap="round"></path><path d="M 185.500,31.094 C 192.109,38.496 192.148,38.471 198.500,46.094" stroke-width="2.641" stroke="black" fill="none" stroke-linecap="round"></path><path d="M 198.500,46.094 C 204.648,53.471 204.500,53.594 210.500,61.094" stroke-width="2.641" stroke="black" fill="none" stroke-linecap="round"></path><path d="M 210.500,61.094 C 214.500,66.094 215.877,65.412 218.500,71.094" stroke-width="3.014" stroke="black" fill="none" stroke-linecap="round"></path><path d="M 218.500,71.094 C 221.877,78.412 220.376,79.127 222.500,87.094" stroke-width="2.839" stroke="black" fill="none" stroke-linecap="round"></path><path d="M 222.500,87.094 C 224.376,94.127 225.132,93.978 226.500,101.094" stroke-width="2.970" stroke="black" fill="none" stroke-linecap="round"></path><path d="M 226.500,101.094 C 227.632,106.978 227.200,107.085 227.500,113.094" stroke-width="3.189" stroke="black" fill="none" stroke-linecap="round"></path><path d="M 227.500,113.094 C 227.700,117.085 227.500,117.094 227.500,121.094" stroke-width="3.562" stroke="black" fill="none" stroke-linecap="round"></path><path d="M 227.500,121.094 C 227.500,126.094 228.143,126.167 227.500,131.094" stroke-width="3.548" stroke="black" fill="none" stroke-linecap="round"></path><path d="M 227.500,131.094 C 226.643,137.667 226.000,137.594 224.500,144.094" stroke-width="3.261" stroke="black" fill="none" stroke-linecap="round"></path><path d="M 224.500,144.094 C 223.000,150.594 223.682,150.860 221.500,157.094" stroke-width="3.184" stroke="black" fill="none" stroke-linecap="round"></path><path d="M 221.500,157.094 C 220.182,160.860 219.410,160.546 217.500,164.094" stroke-width="3.554" stroke="black" fill="none" stroke-linecap="round"></path><path d="M 217.500,164.094 C 215.910,167.046 216.391,167.344 214.500,170.094" stroke-width="3.876" stroke="black" fill="none" stroke-linecap="round"></path><path d="M 214.500,170.094 C 210.891,175.344 211.108,175.757 206.500,180.094" stroke-width="3.998" stroke="black" fill="none" stroke-linecap="round"></path><path d="M 206.500,180.094 C 202.608,183.757 202.084,183.229 197.500,186.094" stroke-width="3.589" stroke="black" fill="none" stroke-linecap="round"></path><path d="M 197.500,186.094 C 194.084,188.229 194.097,188.295 190.500,190.094" stroke-width="4.210" stroke="black" fill="none" stroke-linecap="round"></path><path d="M 190.500,190.094 C 188.097,191.295 188.000,191.094 185.500,192.094" stroke-width="4.629" stroke="black" fill="none" stroke-linecap="round"></path><path d="M 185.500,192.094 C 183.000,193.094 180.264,193.621 180.500,194.094" stroke-width="4.373" stroke="black" fill="none" stroke-linecap="round"></path><path d="M 180.500,194.094 C 180.764,194.621 183.516,194.323 186.500,194.094" stroke-width="5.082" stroke="black" fill="none" stroke-linecap="round"></path><path d="M 186.500,194.094 C 190.016,193.823 194.419,192.910 193.500,193.094" stroke-width="4.759" stroke="black" fill="none" stroke-linecap="round"></path><path d="M 193.500,193.094 C 191.919,193.410 187.436,193.803 181.500,195.094" stroke-width="5.005" stroke="black" fill="none" stroke-linecap="round"></path><path d="M 181.500,195.094 C 175.936,196.303 175.851,196.205 170.500,198.094" stroke-width="3.662" stroke="black" fill="none" stroke-linecap="round"></path><path d="M 170.500,198.094 C 167.351,199.205 167.667,200.302 164.500,201.094" stroke-width="3.914" stroke="black" fill="none" stroke-linecap="round"></path><path d="M 164.500,201.094 C 161.667,201.802 158.500,200.845 158.500,201.094" stroke-width="4.082" stroke="black" fill="none" stroke-linecap="round"></path><path d="M 158.500,201.094 C 158.500,201.345 161.481,201.819 164.500,202.094" stroke-width="4.946" stroke="black" fill="none" stroke-linecap="round"></path><path d="M 164.500,202.094 C 166.981,202.319 167.000,202.094 169.500,202.094" stroke-width="4.510" stroke="black" fill="none" stroke-linecap="round"></path><path d="M 169.500,202.094 C 173.500,202.094 173.500,202.094 177.500,202.094" stroke-width="4.522" stroke="black" fill="none" stroke-linecap="round"></path><path d="M 177.500,202.094 C 182.000,202.094 182.000,202.094 186.500,202.094" stroke-width="3.896" stroke="black" fill="none" stroke-linecap="round"></path><path d="M 186.500,202.094 C 191.000,202.094 191.000,202.094 195.500,202.094" stroke-width="3.741" stroke="black" fill="none" stroke-linecap="round"></path><path d="M 195.500,202.094 C 199.500,202.094 199.740,201.226 203.500,202.094" stroke-width="3.747" stroke="black" fill="none" stroke-linecap="round"></path><path d="M 203.500,202.094 C 206.240,202.726 205.833,204.027 208.500,205.094" stroke-width="4.046" stroke="black" fill="none" stroke-linecap="round"></path><path d="M 208.500,205.094 C 210.833,206.027 211.068,205.364 213.500,206.094" stroke-width="4.239" stroke="black" fill="none" stroke-linecap="round"></path><path d="M 213.500,206.094 C 216.068,206.864 217.209,206.066 218.500,208.094" stroke-width="4.640" stroke="black" fill="none" stroke-linecap="round"></path><path d="M 218.500,208.094 C 220.709,211.566 218.581,213.016 220.500,217.094" stroke-width="4.849" stroke="black" fill="none" stroke-linecap="round"></path><path d="M 220.500,217.094 C 222.581,221.516 223.595,221.027 226.500,225.094" stroke-width="3.853" stroke="black" fill="none" stroke-linecap="round"></path><path d="M 226.500,225.094 C 228.595,228.027 231.386,232.275 230.500,231.094" stroke-width="3.920" stroke="black" fill="none" stroke-linecap="round"></path><path d="M 238.500,157.094 C 246.000,165.594 246.427,165.253 253.500,174.094" stroke-width="4.365" stroke="black" fill="none" stroke-linecap="round"></path><path d="M 253.500,174.094 C 260.427,182.753 259.880,183.183 266.500,192.094" stroke-width="2.811" stroke="black" fill="none" stroke-linecap="round"></path><path d="M 266.500,192.094 C 272.880,200.683 272.728,200.817 279.500,209.094" stroke-width="2.515" stroke="black" fill="none" stroke-linecap="round"></path><path d="M 279.500,209.094 C 286.228,217.317 286.801,216.849 293.500,225.094" stroke-width="2.504" stroke="black" fill="none" stroke-linecap="round"></path><path d="M 293.500,225.094 C 299.801,232.849 299.223,233.322 305.500,241.094" stroke-width="2.560" stroke="black" fill="none" stroke-linecap="round"></path><path d="M 305.500,241.094 C 309.723,246.322 312.943,254.492 314.500,251.094" stroke-width="2.888" stroke="black" fill="none" stroke-linecap="round"></path><path d="M 314.500,251.094 C 318.443,242.492 316.075,234.111 316.500,217.094" stroke-width="3.870" stroke="black" fill="none" stroke-linecap="round"></path><path d="M 316.500,217.094 C 317.075,194.111 317.555,194.042 316.500,171.094" stroke-width="1.787" stroke="black" fill="none" stroke-linecap="round"></path><path d="M 316.500,171.094 C 315.555,150.542 314.739,150.566 312.500,130.094" stroke-width="1.632" stroke="black" fill="none" stroke-linecap="round"></path><path d="M 312.500,130.094 C 311.239,118.566 310.411,118.632 309.500,107.094" stroke-width="2.092" stroke="black" fill="none" stroke-linecap="round"></path><path d="M 309.500,107.094 C 308.911,99.632 309.734,99.587 309.500,92.094" stroke-width="2.648" stroke="black" fill="none" stroke-linecap="round"></path><path d="M 309.500,92.094 C 309.234,83.587 308.758,83.601 308.500,75.094" stroke-width="2.701" stroke="black" fill="none" stroke-linecap="round"></path><path d="M 308.500,75.094 C 308.258,67.101 308.500,67.094 308.500,59.094" stroke-width="2.836" stroke="black" fill="none" stroke-linecap="round"></path><path d="M 308.500,59.094 C 308.500,51.094 308.796,51.080 308.500,43.094" stroke-width="2.879" stroke="black" fill="none" stroke-linecap="round"></path><path d="M 308.500,43.094 C 308.296,37.580 307.730,37.606 307.500,32.094" stroke-width="3.231" stroke="black" fill="none" stroke-linecap="round"></path><path d="M 307.500,32.094 C 307.230,25.606 307.500,25.594 307.500,19.094" stroke-width="3.141" stroke="black" fill="none" stroke-linecap="round"></path><path d="M 352.500,200.094 C 355.000,201.594 355.363,201.170 357.500,203.094" stroke-width="5.315" stroke="black" fill="none" stroke-linecap="round"></path><path d="M 357.500,203.094 C 360.363,205.670 360.343,205.859 362.500,209.094" stroke-width="4.201" stroke="black" fill="none" stroke-linecap="round"></path><path d="M 362.500,209.094 C 365.343,213.359 364.302,214.158 367.500,218.094" stroke-width="3.687" stroke="black" fill="none" stroke-linecap="round"></path><path d="M 367.500,218.094 C 370.802,222.158 371.759,221.353 375.500,225.094" stroke-width="3.466" stroke="black" fill="none" stroke-linecap="round"></path><path d="M 375.500,225.094 C 377.259,226.853 376.500,228.094 378.500,229.094" stroke-width="4.072" stroke="black" fill="none" stroke-linecap="round"></path><path d="M 378.500,229.094 C 380.500,230.094 382.023,230.570 383.500,229.094" stroke-width="4.915" stroke="black" fill="none" stroke-linecap="round"></path><path d="M 383.500,229.094 C 386.023,226.570 384.717,224.957 386.500,221.094" stroke-width="4.032" stroke="black" fill="none" stroke-linecap="round"></path><path d="M 386.500,221.094 C 387.717,218.457 387.935,218.553 389.500,216.094" stroke-width="4.140" stroke="black" fill="none" stroke-linecap="round"></path><path d="M 389.500,216.094 C 391.435,213.053 390.910,210.871 393.500,210.094" stroke-width="3.953" stroke="black" fill="none" stroke-linecap="round"></path><path d="M 393.500,210.094 C 395.910,209.371 396.959,211.015 399.500,213.094" stroke-width="4.794" stroke="black" fill="none" stroke-linecap="round"></path><path d="M 399.500,213.094 C 402.459,215.515 401.475,216.976 404.500,219.094" stroke-width="4.619" stroke="black" fill="none" stroke-linecap="round"></path><path d="M 404.500,219.094 C 406.475,220.476 407.367,220.805 409.500,220.094" stroke-width="5.029" stroke="black" fill="none" stroke-linecap="round"></path><path d="M 409.500,220.094 C 411.867,219.305 412.185,218.460 413.500,216.094" stroke-width="4.868" stroke="black" fill="none" stroke-linecap="round"></path><path d="M 413.500,216.094 C 414.685,213.960 412.985,212.356 414.500,211.094" stroke-width="4.884" stroke="black" fill="none" stroke-linecap="round"></path><path d="M 414.500,211.094 C 415.985,209.856 417.033,211.423 419.500,211.094" stroke-width="5.231" stroke="black" fill="none" stroke-linecap="round"></path><path d="M 419.500,211.094 C 424.533,210.423 425.310,211.608 429.500,209.094" stroke-width="4.540" stroke="black" fill="none" stroke-linecap="round"></path><path d="M 429.500,209.094 C 435.310,205.608 434.631,204.218 439.500,199.094" stroke-width="3.401" stroke="black" fill="none" stroke-linecap="round"></path><path d="M 439.500,199.094 C 444.131,194.218 444.759,194.536 448.500,189.094" stroke-width="3.214" stroke="black" fill="none" stroke-linecap="round"></path><path d="M 448.500,189.094 C 450.259,186.536 451.500,185.094 450.500,183.094" stroke-width="3.746" stroke="black" fill="none" stroke-linecap="round"></path><path d="M 450.500,183.094 C 449.500,181.094 446.236,179.792 444.500,181.094" stroke-width="4.710" stroke="black" fill="none" stroke-linecap="round"></path><path d="M 444.500,181.094 C 442.236,182.792 443.562,185.110 442.500,189.094" stroke-width="4.561" stroke="black" fill="none" stroke-linecap="round"></path><path d="M 442.500,189.094 C 441.562,192.610 439.638,193.507 440.500,196.094" stroke-width="4.800" stroke="black" fill="none" stroke-linecap="round"></path><path d="M 440.500,196.094 C 441.138,198.007 443.576,198.949 445.500,198.094" stroke-width="5.081" stroke="black" fill="none" stroke-linecap="round"></path><path d="M 445.500,198.094 C 448.076,196.949 447.776,195.254 449.500,192.094" stroke-width="4.174" stroke="black" fill="none" stroke-linecap="round"></path><path d="M 449.500,192.094 C 453.776,184.254 452.877,183.721 457.500,176.094" stroke-width="3.056" stroke="black" fill="none" stroke-linecap="round"></path><path d="M 457.500,176.094 C 462.877,167.221 464.794,168.270 469.500,159.094" stroke-width="2.667" stroke="black" fill="none" stroke-linecap="round"></path><path d="M 469.500,159.094 C 474.794,148.770 474.190,148.297 477.500,137.094" stroke-width="2.387" stroke="black" fill="none" stroke-linecap="round"></path><path d="M 477.500,137.094 C 480.690,126.297 480.790,126.206 482.500,115.094" stroke-width="2.408" stroke="black" fill="none" stroke-linecap="round"></path><path d="M 482.500,115.094 C 483.790,106.706 483.242,106.601 483.500,98.094" stroke-width="2.676" stroke="black" fill="none" stroke-linecap="round"></path><path d="M 483.500,98.094 C 483.742,90.101 484.346,89.990 483.500,82.094" stroke-width="2.880" stroke="black" fill="none" stroke-linecap="round"></path><path d="M 483.500,82.094 C 482.846,75.990 482.274,76.008 480.500,70.094" stroke-width="3.133" stroke="black" fill="none" stroke-linecap="round"></path><path d="M 480.500,70.094 C 479.274,66.008 479.086,62.358 477.500,62.094" stroke-width="3.537" stroke="black" fill="none" stroke-linecap="round"></path><path d="M 477.500,62.094 C 476.086,61.858 474.776,65.374 474.500,69.094" stroke-width="4.581" stroke="black" fill="none" stroke-linecap="round"></path><path d="M 474.500,69.094 C 473.776,78.874 474.285,79.173 475.500,89.094" stroke-width="2.893" stroke="black" fill="none" stroke-linecap="round"></path><path d="M 475.500,89.094 C 477.285,103.673 476.839,103.881 480.500,118.094" stroke-width="2.254" stroke="black" fill="none" stroke-linecap="round"></path><path d="M 480.500,118.094 C 485.339,136.881 486.656,136.545 492.500,155.094" stroke-width="1.844" stroke="black" fill="none" stroke-linecap="round"></path><path d="M 492.500,155.094 C 498.156,173.045 498.294,173.010 503.500,191.094" stroke-width="1.724" stroke="black" fill="none" stroke-linecap="round"></path><path d="M 503.500,191.094 C 507.794,206.010 507.042,206.235 511.500,221.094" stroke-width="1.852" stroke="black" fill="none" stroke-linecap="round"></path><path d="M 511.500,221.094 C 514.542,231.235 515.056,231.075 518.500,241.094" stroke-width="2.216" stroke="black" fill="none" stroke-linecap="round"></path><path d="M 518.500,241.094 C 520.556,247.075 522.877,254.603 522.500,253.094" stroke-width="2.838" stroke="black" fill="none" stroke-linecap="round"></path><path d="M 522.500,253.094 C 521.877,250.603 519.750,243.014 516.500,233.094" stroke-width="3.904" stroke="black" fill="none" stroke-linecap="round"></path><path d="M 516.500,233.094 C 510.250,214.014 510.850,213.752 503.500,195.094" stroke-width="1.947" stroke="black" fill="none" stroke-linecap="round"></path><path d="M 503.500,195.094 C 497.850,180.752 496.577,181.272 490.500,167.094" stroke-width="1.982" stroke="black" fill="none" stroke-linecap="round"></path><path d="M 490.500,167.094 C 486.077,156.772 486.238,156.684 482.500,146.094" stroke-width="2.271" stroke="black" fill="none" stroke-linecap="round"></path><path d="M 482.500,146.094 C 480.238,139.684 480.070,139.686 478.500,133.094" stroke-width="2.760" stroke="black" fill="none" stroke-linecap="round"></path><path d="M 478.500,133.094 C 477.570,129.186 477.751,129.109 477.500,125.094" stroke-width="3.423" stroke="black" fill="none" stroke-linecap="round"></path><path d="M 477.500,125.094 C 477.251,121.109 477.500,121.094 477.500,117.094" stroke-width="3.695" stroke="black" fill="none" stroke-linecap="round"></path><path d="M 477.500,117.094 C 477.500,114.594 476.113,113.679 477.500,112.094" stroke-width="4.585" stroke="black" fill="none" stroke-linecap="round"></path><path d="M 477.500,112.094 C 479.613,109.679 481.142,110.872 484.500,109.094" stroke-width="4.556" stroke="black" fill="none" stroke-linecap="round"></path><path d="M 484.500,109.094 C 489.642,106.372 489.556,106.184 494.500,103.094" stroke-width="3.628" stroke="black" fill="none" stroke-linecap="round"></path><path d="M 494.500,103.094 C 501.556,98.684 501.794,98.994 508.500,94.094" stroke-width="2.971" stroke="black" fill="none" stroke-linecap="round"></path><path d="M 508.500,94.094 C 514.794,89.494 514.402,88.972 520.500,84.094" stroke-width="2.883" stroke="black" fill="none" stroke-linecap="round"></path><path d="M 520.500,84.094 C 526.902,78.972 528.148,80.040 533.500,74.094" stroke-width="2.808" stroke="black" fill="none" stroke-linecap="round"></path><path d="M 533.500,74.094 C 537.148,70.040 536.000,69.094 538.500,64.094" stroke-width="3.194" stroke="black" fill="none" stroke-linecap="round"></path><path d="M 538.500,64.094 C 541.500,58.094 541.964,58.253 544.500,52.094" stroke-width="3.099" stroke="black" fill="none" stroke-linecap="round"></path><path d="M 544.500,52.094 C 545.464,49.753 545.270,45.711 545.500,47.094" stroke-width="3.867" stroke="black" fill="none" stroke-linecap="round"></path><path d="M 545.500,47.094 C 546.270,51.711 544.968,55.752 546.500,64.094" stroke-width="4.480" stroke="black" fill="none" stroke-linecap="round"></path><path d="M 546.500,64.094 C 549.468,80.252 550.292,80.148 554.500,96.094" stroke-width="2.310" stroke="black" fill="none" stroke-linecap="round"></path><path d="M 554.500,96.094 C 559.792,116.148 558.778,116.539 565.500,136.094" stroke-width="1.792" stroke="black" fill="none" stroke-linecap="round"></path><path d="M 565.500,136.094 C 569.778,148.539 570.700,148.241 576.500,160.094" stroke-width="2.011" stroke="black" fill="none" stroke-linecap="round"></path><path d="M 576.500,160.094 C 582.200,171.741 581.821,172.092 588.500,183.094" stroke-width="2.157" stroke="black" fill="none" stroke-linecap="round"></path><path d="M 588.500,183.094 C 590.321,186.092 590.571,186.629 593.500,188.094" stroke-width="3.172" stroke="black" fill="none" stroke-linecap="round"></path><path d="M 593.500,188.094 C 595.571,189.129 596.761,189.516 598.500,188.094" stroke-width="4.320" stroke="black" fill="none" stroke-linecap="round"></path><path d="M 598.500,188.094 C 602.261,185.016 601.412,183.533 604.500,179.094" stroke-width="3.662" stroke="black" fill="none" stroke-linecap="round"></path><path d="M 604.500,179.094 C 609.412,172.033 609.479,172.079 614.500,165.094" stroke-width="2.940" stroke="black" fill="none" stroke-linecap="round"></path><path d="M 614.500,165.094 C 620.979,156.079 621.075,156.147 627.500,147.094" stroke-width="2.570" stroke="black" fill="none" stroke-linecap="round"></path><path d="M 627.500,147.094 C 632.075,140.647 631.814,140.453 636.500,134.094" stroke-width="2.802" stroke="black" fill="none" stroke-linecap="round"></path><path d="M 636.500,134.094 C 638.814,130.953 638.890,130.994 641.500,128.094" stroke-width="3.422" stroke="black" fill="none" stroke-linecap="round"></path><path d="M 641.500,128.094 C 643.390,125.994 643.133,124.883 645.500,124.094" stroke-width="4.426" stroke="black" fill="none" stroke-linecap="round"></path><path d="M 645.500,124.094 C 647.633,123.383 648.228,124.084 650.500,125.094" stroke-width="4.880" stroke="black" fill="none" stroke-linecap="round"></path><path d="M 650.500,125.094 C 652.728,126.084 652.272,127.104 654.500,128.094" stroke-width="4.494" stroke="black" fill="none" stroke-linecap="round"></path><path d="M 654.500,128.094 C 656.772,129.104 657.016,128.521 659.500,129.094" stroke-width="4.332" stroke="black" fill="none" stroke-linecap="round"></path><path d="M 659.500,129.094 C 663.516,130.021 663.941,131.687 667.500,131.094" stroke-width="4.467" stroke="black" fill="none" stroke-linecap="round"></path><path d="M 667.500,131.094 C 669.941,130.687 669.899,129.381 671.500,127.094" stroke-width="4.696" stroke="black" fill="none" stroke-linecap="round"></path><path d="M 671.500,127.094 C 673.399,124.381 673.592,124.273 674.500,121.094" stroke-width="4.212" stroke="black" fill="none" stroke-linecap="round"></path><path d="M 674.500,121.094 C 675.592,117.273 673.828,116.438 675.500,113.094" stroke-width="4.423" stroke="black" fill="none" stroke-linecap="round"></path><path d="M 675.500,113.094 C 676.828,110.438 677.623,110.200 680.500,109.094" stroke-width="4.636" stroke="black" fill="none" stroke-linecap="round"></path><path d="M 680.500,109.094 C 684.123,107.700 684.488,108.402 688.500,108.094" stroke-width="4.029" stroke="black" fill="none" stroke-linecap="round"></path><path d="M 688.500,108.094 C 690.988,107.902 691.025,107.846 693.500,108.094" stroke-width="4.205" stroke="black" fill="none" stroke-linecap="round"></path><path d="M 693.500,108.094 C 696.025,108.346 696.068,108.364 698.500,109.094" stroke-width="4.290" stroke="black" fill="none" stroke-linecap="round"></path><path d="M 698.500,109.094 C 701.068,109.864 701.255,109.665 703.500,111.094" stroke-width="4.277" stroke="black" fill="none" stroke-linecap="round"></path><path d="M 703.500,111.094 C 706.755,113.165 707.666,112.883 709.500,116.094" stroke-width="4.464" stroke="black" fill="none" stroke-linecap="round"></path><path d="M 709.500,116.094 C 711.666,119.883 711.044,120.534 711.500,125.094" stroke-width="3.859" stroke="black" fill="none" stroke-linecap="round"></path><path d="M 711.500,125.094 C 712.044,130.534 713.290,131.081 711.500,136.094" stroke-width="3.537" stroke="black" fill="none" stroke-linecap="round"></path><path d="M 711.500,136.094 C 708.290,145.081 707.482,145.317 701.500,153.094" stroke-width="2.757" stroke="black" fill="none" stroke-linecap="round"></path><path d="M 701.500,153.094 C 692.482,164.817 693.440,166.517 681.500,175.094" stroke-width="2.218" stroke="black" fill="none" stroke-linecap="round"></path><path d="M 681.500,175.094 C 657.940,192.017 657.264,192.359 630.500,204.094" stroke-width="1.451" stroke="black" fill="none" stroke-linecap="round"></path><path d="M 630.500,204.094 C 592.264,220.859 591.914,221.520 551.500,232.094" stroke-width="1.125" stroke="black" fill="none" stroke-linecap="round"></path><path d="M 551.500,232.094 C 505.914,244.020 505.338,243.679 458.500,249.094" stroke-width="1.125" stroke="black" fill="none" stroke-linecap="round"></path><path d="M 458.500,249.094 C 418.838,253.679 418.513,251.283 378.500,252.094" stroke-width="1.125" stroke="black" fill="none" stroke-linecap="round"></path><path d="M 378.500,252.094 C 344.513,252.783 344.500,252.094 310.500,252.094" stroke-width="1.125" stroke="black" fill="none" stroke-linecap="round"></path><path d="M 310.500,252.094 C 292.500,252.094 292.470,251.463 274.500,252.094" stroke-width="1.460" stroke="black" fill="none" stroke-linecap="round"></path><path d="M 274.500,252.094 C 263.970,252.463 263.966,252.817 253.500,254.094" stroke-width="2.064" stroke="black" fill="none" stroke-linecap="round"></path><path d="M 253.500,254.094 C 243.466,255.317 231.575,258.826 233.500,257.094" stroke-width="2.393" stroke="black" fill="none" stroke-linecap="round"></path><path d="M 233.500,257.094 C 236.575,254.326 248.159,250.126 263.500,245.094" stroke-width="3.353" stroke="black" fill="none" stroke-linecap="round"></path><path d="M 263.500,245.094 C 310.659,229.626 310.046,226.420 358.500,216.094" stroke-width="1.125" stroke="black" fill="none" stroke-linecap="round"></path><path d="M 358.500,216.094 C 432.046,200.420 432.552,199.400 507.500,193.094" stroke-width="1.125" stroke="black" fill="none" stroke-linecap="round"></path></svg>